<svg width="24" height="24" viewBox="0 0 24 24" fill="none" xmlns="http://www.w3.org/2000/svg">
<path fill-rule="evenodd" clip-rule="evenodd" d="M9.643 2.00012C10.594 2.00112 11.5 2.45512 12.068 3.21412L12.979 4.42612C13.268 4.81012 13.727 5.03912 14.207 5.04012H17.036C20.898 5.04012 22.697 7.01912 22.697 11.2681L22.669 16.2351C22.668 20.2031 20.202 22.6691 16.232 22.6691H8.45C4.472 22.6691 2 20.2021 2 16.2321V8.43312C2 4.16412 3.899 2.00012 7.643 2.00012H9.643ZM9.642 3.50012H7.643C4.739 3.50012 3.5 4.97612 3.5 8.43312V16.2321C3.5 19.4161 5.258 21.1691 8.45 21.1691H16.232C19.416 21.1691 21.169 19.4161 21.169 16.2321V16.2291L21.197 11.2641C21.197 7.86512 20.031 6.54012 17.036 6.54012H14.206C13.257 6.53912 12.351 6.08612 11.781 5.32812L10.868 4.11412C10.581 3.72912 10.122 3.50112 9.642 3.50012ZM16.7162 14.2129C17.1302 14.2129 17.4662 14.5489 17.4662 14.9629C17.4662 15.3769 17.1302 15.7129 16.7162 15.7129H7.9812C7.5672 15.7129 7.2312 15.3769 7.2312 14.9629C7.2312 14.5489 7.5672 14.2129 7.9812 14.2129H16.7162Z" fill="#4E4E4E" fill-opacity="0.43"/>
</svg>
